<svg xmlns="http://www.w3.org/2000/svg" viewBox="0 0 744.094 1052.362"><path d="M302.075 1018.988c-15.82-5.19-28.348-16.866-31.926-29.752-1.426-5.135-2.106-110.18-2.113-326.659l-.011-319.09h-16.03v120.45c0 118.08-.082 120.594-4.143 127.737-5.26 9.251-11.169 13.586-22.73 16.678-17.094 4.572-35.789-4.158-42.502-19.847-4.319-10.095-4.038-279.339.31-296.03 9.799-37.62 41.532-68.442 78.543-76.285 19.496-4.131 199.75-4.182 219.189-.062 19.8 4.197 36.807 13.69 51.855 28.946 15.478 15.692 22.703 28.421 28.093 49.493 3.756 14.688 3.963 22.554 3.963 150.492 0 116.95-.412 135.98-3.082 142.37-4.151 9.936-8.423 14.405-17.957 18.783-15.82 7.264-35.927 2.59-45.281-10.525l-4.811-6.746-.546-122.727-.546-122.727h-15.94v320.657c0 351.5.795 328.162-11.627 341.25-9.814 10.34-19.82 14.251-36.462 14.251-16.641 0-26.648-3.911-36.461-14.25-12.181-12.835-11.628-2.887-11.628-209.006V607.976h-16.029V796.39c0 153.544-.5 189.606-2.702 194.86-4.037 9.634-12.819 19.131-22.037 23.834-8.885 4.533-29.056 6.64-37.39 3.905zm45.07-825.262c-24.222-8.65-39.193-21.987-49.79-44.351-5.865-12.379-6.288-14.757-6.288-35.355 0-20.841.364-22.822 6.48-35.244 30.543-62.043 118.723-62.195 149.215-.257 6.313 12.824 6.606 14.44 6.606 36.503 0 21.218-.453 24.007-5.601 34.49-8.648 17.61-21.421 30.452-38.868 39.074-13.546 6.695-16.986 7.529-33.405 8.096-13.778.476-20.788-.255-28.35-2.956z" fill="#cdebff" class="fill-000000"></path></svg>