<svg xmlns="http://www.w3.org/2000/svg" viewBox="0 0 225.736 491.404"><path d="M113.129 80.035c22.101 0 40.018-17.916 40.018-40.018C153.147 17.918 135.23 0 113.129 0 91.031 0 73.112 17.918 73.112 40.017c0 22.102 17.92 40.018 40.017 40.018zM107.212 333.911l.016 138.603c0 25.186-37.734 25.186-37.734 0l-.016-137.644h-50.67l54.17-187.947h-8.41L33.058 252.95c-7.5 23.125-39.25 13.625-31.986-11.138l34.986-115.189C39.808 113.487 56.421 90.2 85.176 90.2h55.052c28.5 0 45.187 23.483 49.5 36.423l35 115.077c7 24.75-24.5 35-32 10.875l-31.5-105.652h-9.106l54.606 187.947h-50.75V472.7c0 25-37.577 24.875-37.577 0V333.911h-11.189z" stroke="none" fill="#ffd8e1" class="fill-000000"></path></svg>